<svg width="1280" height="220" viewBox="0 0 1280 220" fill="none" xmlns="http://www.w3.org/2000/svg" role="img" aria-labelledby="title desc">
  <title id="title">Animated developer capability matrix</title>
  <desc id="desc">Four holographic animated capability modules for frontend engineering, React, motion, and performance.</desc>
  <defs>
    <linearGradient id="bg" x1="0" y1="0" x2="1280" y2="220"><stop stop-color="#020617"/><stop offset=".44" stop-color="#071831"/><stop offset=".72" stop-color="#11102B"/><stop offset="1" stop-color="#04342F"/></linearGradient>
    <linearGradient id="spectrum" x1="38" y1="0" x2="1242" y2="0"><stop stop-color="#22D3EE"/><stop offset=".26" stop-color="#38BDF8"/><stop offset=".52" stop-color="#A78BFA"/><stop offset=".76" stop-color="#22C55E"/><stop offset="1" stop-color="#FBBF24"/></linearGradient>
    <linearGradient id="glass" x1="0" y1="0" x2="1" y2="1"><stop stop-color="#10243B" stop-opacity=".94"/><stop offset=".55" stop-color="#07101F" stop-opacity=".92"/><stop offset="1" stop-color="#0B1723" stop-opacity=".9"/></linearGradient>
    <pattern id="grid" width="28" height="28" patternUnits="userSpaceOnUse"><path d="M28 0H0V28" stroke="#7DD3FC" stroke-width=".5" opacity=".08"/><circle cx="1" cy="1" r="1" fill="#BAE6FD" opacity=".16"/></pattern>
    <filter id="glow" x="-100%" y="-120%" width="300%" height="340%"><feGaussianBlur stdDeviation="7" result="b"/><feMerge><feMergeNode in="b"/><feMergeNode in="SourceGraphic"/></feMerge></filter>
    <filter id="shadow" x="-30%" y="-40%" width="170%" height="210%"><feDropShadow dx="0" dy="16" stdDeviation="13" flood-color="#00030C" flood-opacity=".8"/></filter>
  </defs>
  <rect width="1280" height="220" rx="30" fill="url(#bg)"/><rect width="1280" height="220" rx="30" fill="url(#grid)"/><rect x="1" y="1" width="1278" height="218" rx="29" stroke="url(#spectrum)" stroke-opacity=".32"/>
  <path d="M42 44H1238" stroke="#1E293B" stroke-width="2"/><path d="M42 44H1238" stroke="url(#spectrum)" stroke-width="3" stroke-dasharray="10 24" filter="url(#glow)"><animate attributeName="stroke-dashoffset" values="0;-136" dur="2.8s" repeatCount="indefinite"/></path>
  <text x="50" y="30" fill="#67E8F9" font-family="Consolas, monospace" font-size="11" font-weight="800" letter-spacing="2">CAPABILITY MATRIX // ALL CORES ONLINE</text>
  <g transform="translate(1050 17)"><circle cx="4" cy="4" r="4" fill="#22C55E" filter="url(#glow)"><animate attributeName="opacity" values="1;.15;1" dur="1.2s" repeatCount="indefinite"/></circle><text x="18" y="8" fill="#86EFAC" font-family="Consolas, monospace" font-size="10">LIVE SIGNAL 100%</text></g>

  <g transform="translate(42 68)" font-family="Inter, Arial" filter="url(#shadow)">
    <g transform="translate(0 0)"><g>
      <rect x="7" y="9" width="276" height="118" rx="22" fill="#0EA5E9" opacity=".11"/><rect width="276" height="118" rx="22" fill="url(#glass)" stroke="#0EA5E9"/>
      <circle cx="34" cy="36" r="18" fill="#082F49" stroke="#38BDF8"/><path d="M24 38l8 7 14-18" stroke="#67E8F9" stroke-width="3" stroke-linecap="round" stroke-linejoin="round"/><circle cx="34" cy="36" r="25" stroke="#38BDF8" stroke-dasharray="8 10" opacity=".36"><animate attributeName="stroke-dashoffset" values="0;-72" dur="3s" repeatCount="indefinite"/></circle>
      <text x="72" y="28" fill="#67E8F9" font-family="Consolas, monospace" font-size="10">CORE_01</text><text x="72" y="52" fill="#F8FAFC" font-size="17" font-weight="900">FRONTEND</text><text x="72" y="69" fill="#BAE6FD" font-size="11" font-weight="800">ENGINEERING SYSTEMS</text>
      <rect x="20" y="88" width="236" height="8" rx="4" fill="#172033"/><rect x="20" y="88" width="52" height="8" rx="4" fill="#22D3EE" filter="url(#glow)"><animate attributeName="width" values="32;236;168;236;32" dur="4.2s" repeatCount="indefinite"/></rect><text x="20" y="108" fill="#64748B" font-family="Consolas, monospace" font-size="9">UI · ACCESSIBILITY · SCALE</text>
      <animateTransform attributeName="transform" type="translate" values="0 1;0 -6;0 1" dur="4.4s" repeatCount="indefinite"/>
    </g></g>
    <g transform="translate(306 0)"><g>
      <rect x="7" y="9" width="276" height="118" rx="22" fill="#3B82F6" opacity=".11"/><rect width="276" height="118" rx="22" fill="#08162D" stroke="#3B82F6"/>
      <circle cx="34" cy="36" r="18" fill="#172554" stroke="#60A5FA"/><ellipse cx="34" cy="36" rx="13" ry="5" stroke="#93C5FD" stroke-width="2"/><ellipse cx="34" cy="36" rx="13" ry="5" stroke="#93C5FD" stroke-width="2" transform="rotate(60 34 36)"/><ellipse cx="34" cy="36" rx="13" ry="5" stroke="#93C5FD" stroke-width="2" transform="rotate(120 34 36)"/><circle cx="34" cy="36" r="3" fill="#fff" filter="url(#glow)"/>
      <text x="72" y="28" fill="#60A5FA" font-family="Consolas, monospace" font-size="10">CORE_02</text><text x="72" y="52" fill="#F8FAFC" font-size="17" font-weight="900">REACT</text><text x="72" y="69" fill="#BFDBFE" font-size="11" font-weight="800">COMPONENT ARCHITECTURE</text>
      <g transform="translate(20 87)" fill="#60A5FA"><rect width="24" height="10" rx="5"><animate attributeName="width" values="24;70;24" dur="2.1s" repeatCount="indefinite"/></rect><rect x="82" width="54" height="10" rx="5" opacity=".72"><animate attributeName="width" values="54;92;36;54" dur="2.6s" repeatCount="indefinite"/></rect><rect x="186" width="50" height="10" rx="5" opacity=".46"><animate attributeName="opacity" values=".3;1;.3" dur="1.8s" repeatCount="indefinite"/></rect></g><text x="20" y="108" fill="#64748B" font-family="Consolas, monospace" font-size="9">STATE · HOOKS · REUSABILITY</text>
      <animateTransform attributeName="transform" type="translate" values="0 -5;0 5;0 -5" dur="4.8s" repeatCount="indefinite"/>
    </g></g>
    <g transform="translate(612 0)"><g>
      <rect x="7" y="9" width="276" height="118" rx="22" fill="#A78BFA" opacity=".11"/><rect width="276" height="118" rx="22" fill="#17102E" stroke="#8B5CF6"/>
      <circle cx="34" cy="36" r="18" fill="#2E1065" stroke="#A78BFA"/><path d="M24 42C28 22 40 52 46 28" stroke="#DDD6FE" stroke-width="3" stroke-linecap="round"/><circle cx="34" cy="36" r="25" stroke="#A78BFA" stroke-dasharray="5 12" opacity=".45"><animate attributeName="stroke-dashoffset" values="0;68" dur="2.6s" repeatCount="indefinite"/></circle>
      <text x="72" y="28" fill="#A78BFA" font-family="Consolas, monospace" font-size="10">CORE_03</text><text x="72" y="52" fill="#F8FAFC" font-size="17" font-weight="900">MOTION</text><text x="72" y="69" fill="#DDD6FE" font-size="11" font-weight="800">DEPTH &amp; INTERACTION</text>
      <path d="M20 94C52 76 72 106 102 88C132 70 156 106 188 87C212 73 232 84 256 76" stroke="#A78BFA" stroke-width="3" stroke-linecap="round" stroke-dasharray="8 10" filter="url(#glow)"><animate attributeName="stroke-dashoffset" values="0;-72" dur="2.2s" repeatCount="indefinite"/></path><circle r="4" fill="#fff" filter="url(#glow)"><animateMotion dur="3.4s" repeatCount="indefinite" path="M20 94C52 76 72 106 102 88C132 70 156 106 188 87C212 73 232 84 256 76"/></circle><text x="20" y="108" fill="#64748B" font-family="Consolas, monospace" font-size="9">SPRING · PARALLAX · DELIGHT</text>
      <animateTransform attributeName="transform" type="translate" values="0 5;0 -6;0 5" dur="5.1s" repeatCount="indefinite"/>
    </g></g>
    <g transform="translate(918 0)"><g>
      <rect x="7" y="9" width="276" height="118" rx="22" fill="#22C55E" opacity=".11"/><rect width="276" height="118" rx="22" fill="#071F1B" stroke="#22C55E"/>
      <circle cx="34" cy="36" r="18" fill="#064E3B" stroke="#22C55E"/><path d="M24 45V36m10 9V29m10 16V23" stroke="#86EFAC" stroke-width="3" stroke-linecap="round"/><circle cx="34" cy="36" r="25" stroke="#22C55E" stroke-dasharray="3 10" opacity=".46"><animate attributeName="stroke-dashoffset" values="0;-52" dur="2s" repeatCount="indefinite"/></circle>
      <text x="72" y="28" fill="#22C55E" font-family="Consolas, monospace" font-size="10">CORE_04</text><text x="72" y="52" fill="#F8FAFC" font-size="17" font-weight="900">PERFORMANCE</text><text x="72" y="69" fill="#BBF7D0" font-size="11" font-weight="800">FAST BY DEFAULT</text>
      <text x="20" y="98" fill="#86EFAC" font-family="Consolas, monospace" font-size="18" font-weight="900">98</text><text x="45" y="98" fill="#64748B" font-family="Consolas, monospace" font-size="9">LIGHTHOUSE</text><g transform="translate(126 88)" fill="#22C55E"><rect width="12" height="10" rx="3"><animate attributeName="height" values="8;22;8" dur="1.5s" repeatCount="indefinite"/><animate attributeName="y" values="2;-12;2" dur="1.5s" repeatCount="indefinite"/></rect><rect x="20" width="12" height="10" rx="3"><animate attributeName="height" values="20;7;20" dur="1.8s" repeatCount="indefinite"/><animate attributeName="y" values="-10;3;-10" dur="1.8s" repeatCount="indefinite"/></rect><rect x="40" width="12" height="10" rx="3"><animate attributeName="height" values="12;24;12" dur="1.3s" repeatCount="indefinite"/><animate attributeName="y" values="-2;-14;-2" dur="1.3s" repeatCount="indefinite"/></rect><rect x="60" width="12" height="10" rx="3"><animate attributeName="height" values="24;10;24" dur="1.7s" repeatCount="indefinite"/><animate attributeName="y" values="-14;0;-14" dur="1.7s" repeatCount="indefinite"/></rect><rect x="80" width="12" height="10" rx="3"><animate attributeName="height" values="10;20;10" dur="1.4s" repeatCount="indefinite"/><animate attributeName="y" values="0;-10;0" dur="1.4s" repeatCount="indefinite"/></rect></g>
      <animateTransform attributeName="transform" type="translate" values="0 -6;0 4;0 -6" dur="4.6s" repeatCount="indefinite"/>
    </g></g>
  </g>
  <circle r="6" fill="#fff" filter="url(#glow)"><animateMotion dur="5.4s" repeatCount="indefinite" path="M42 44H1238"/></circle><circle r="4" fill="#A78BFA" filter="url(#glow)"><animateMotion begin="-2.7s" dur="5.4s" repeatCount="indefinite" path="M42 44H1238"/></circle>
</svg>
